<svg width="126" height="126" viewBox="0 0 126 126" fill="none" xmlns="http://www.w3.org/2000/svg">
<circle cx="63" cy="63" r="63" fill="#3B3B3B"/>
<circle cx="63" cy="63" r="63" fill="url(#paint0_linear_662_96)"/>
<path d="M49.416 34.6357C52.4859 34.6357 55.2601 35.3947 57.7383 36.9111C60.2534 38.3906 62.251 40.4059 63.7305 42.958C65.2469 45.4731 66.0049 48.266 66.0049 51.3359V52.9443C66.0049 55.9772 65.2469 58.7515 63.7305 61.2666C62.251 63.7447 60.2534 65.7423 57.7383 67.2588C55.2602 68.7382 52.4859 69.4775 49.416 69.4775H31.5518V57.8271H49.5273C50.8589 57.8271 51.9874 57.3464 52.9121 56.3848C53.8737 55.4231 54.3545 54.2572 54.3545 52.8887V51.3359C54.3545 49.9306 53.8736 48.7468 52.9121 47.7852C51.9874 46.8235 50.8589 46.3428 49.5273 46.3428H24.8936V75.8584C24.8936 77.1159 25.3193 78.1885 26.1699 79.0762C27.0206 79.9638 28.0568 80.4072 29.2773 80.4072H60.6152L92.5801 46.2871H69.8486C69.4297 44.5668 68.7895 42.9134 67.9199 41.3398L67.5703 40.7314C67.5575 40.71 67.5442 40.6874 67.5312 40.666C66.1475 38.2978 64.3874 36.2798 62.2715 34.6357H102.233C107.075 34.6357 111 38.5603 111 43.4014L76.2686 80.4629H111V82.1133C111 87.636 106.523 92.1131 101 92.1133H61.9551V92.1143H29.2773C26.3184 92.1143 23.6179 91.3927 21.1768 89.9502C18.7357 88.4707 16.7941 86.5104 15.3516 84.0693C13.9091 81.5913 13.1876 78.8729 13.1875 75.9141V46.5088C13.1875 43.217 14.3898 40.424 16.7939 38.1309C19.198 35.8009 22.0835 34.6357 25.4492 34.6357H49.416Z" fill="white"/>
<defs>
<linearGradient id="paint0_linear_662_96" x1="-6.28928" y1="10.7027" x2="151.289" y2="56.6162" gradientUnits="userSpaceOnUse">
<stop stop-color="#3AD2FD"/>
<stop offset="0.288462" stop-color="#080075"/>
<stop offset="0.745192" stop-color="#46238B"/>
<stop offset="1" stop-color="#F31BBC"/>
</linearGradient>
</defs>
</svg>
