<svg width="64" height="64" viewBox="0 0 64 64" fill="none" xmlns="http://www.w3.org/2000/svg">
<path d="M0 12C0 5.37258 5.37258 0 12 0H52C58.6274 0 64 5.37258 64 12V52C64 58.6274 58.6274 64 52 64H12C5.37258 64 0 58.6274 0 52V12Z" fill="#001A9D"/>
<path d="M0 12C0 5.37258 5.37258 0 12 0H52C58.6274 0 64 5.37258 64 12V52C64 58.6274 58.6274 64 52 64H12C5.37258 64 0 58.6274 0 52V12Z" fill="url(#paint0_linear_668_30)"/>
<path d="M24.7998 8C30.9854 8 36 13.0146 36 19.2002V30.1426L34.4307 36H16V41.5996C16 45.1342 18.8658 48 22.4004 48H31.2148L29.0713 56H20C13.3726 56 8 50.6274 8 44V19.2002C8 13.0146 13.0146 8 19.2002 8H24.7998ZM22 16C18.6863 16 16 18.6863 16 22V28H27.5996C27.8205 28 28 27.8205 28 27.5996V22C28 18.6863 25.3137 16 22 16Z" fill="white"/>
<path d="M45.0259 48H55.9995V56H34.6001L45.3179 16H39.9351C39.5821 12.6871 37.7849 9.80773 35.1851 8H55.7437L45.0259 48Z" fill="white"/>
<defs>
<linearGradient id="paint0_linear_668_30" x1="-3.19456" y1="5.4363" x2="76.8454" y2="28.7574" gradientUnits="userSpaceOnUse">
<stop stop-color="#3AD2FD"/>
<stop offset="0.288462" stop-color="#080075"/>
<stop offset="0.745192" stop-color="#46238B"/>
<stop offset="1" stop-color="#F31BBC"/>
</linearGradient>
</defs>
</svg>
